<svg version="1.1" id="Layer_1" xmlns="http://www.w3.org/2000/svg" xmlns:xlink="http://www.w3.org/1999/xlink" x="0px" y="0px"
	 width="400" height="400" viewBox="0 0 500 500" enable-background="new 0 0 500 500" xml:space="preserve">
<path fill="#FACC13" opacity="1.000000" stroke="none" 
	d="
M0.999999,250.000000 
	C1.000000,167.036087 1.000000,84.072166 1.000000,1.054127 
	C167.558105,1.054127 334.116241,1.054127 501.000000,1.054127 
	C501.000000,84.021729 501.000000,167.043884 500.667419,250.415649 
	C499.497406,249.146057 498.726532,247.488251 497.812958,245.913177 
	C458.080536,177.408539 418.306305,108.928070 378.678040,40.363228 
	C376.705536,36.950436 374.510803,36.048367 370.782715,36.053257 
	C290.967163,36.157963 211.151428,36.162655 131.335938,36.043926 
	C127.367844,36.038025 125.128250,37.174900 123.107788,40.670055 
	C83.633789,108.955215 44.031364,177.166138 4.423756,245.374008 
	C3.466343,247.022751 2.149304,248.462677 0.999999,250.000000 
z"/>
<path fill="#FACC13" opacity="1.000000" stroke="none" 
	d="
M501.000000,254.000000 
	C501.000000,336.297363 501.000000,418.594757 501.000000,500.946045 
	C334.442108,500.946045 167.884186,500.946045 1.000000,500.946045 
	C1.000000,418.978271 1.000000,336.956116 1.349736,254.502029 
	C42.332420,324.319214 82.990211,394.554016 123.517563,464.863983 
	C125.348808,468.040985 127.271202,469.095337 130.893829,469.090240 
	C210.699554,468.977386 290.505524,468.968170 370.311157,469.105408 
	C374.481445,469.112579 376.757935,467.978638 378.883331,464.284180 
	C418.273743,395.814423 457.819092,327.433807 497.362946,259.052399 
	C498.396576,257.264954 499.779816,255.679611 501.000000,254.000000 
z"/>
<path fill="#020D2A" opacity="1.000000" stroke="none" 
	d="
M501.000000,253.625000 
	C499.779816,255.679611 498.396576,257.264954 497.362946,259.052399 
	C457.819092,327.433807 418.273743,395.814423 378.883331,464.284180 
	C376.757935,467.978638 374.481445,469.112579 370.311157,469.105408 
	C290.505524,468.968170 210.699554,468.977386 130.893829,469.090240 
	C127.271202,469.095337 125.348808,468.040985 123.517563,464.863983 
	C82.990211,394.554016 42.332420,324.319214 1.349736,254.035049 
	C1.000000,252.933334 1.000000,251.866653 0.999999,250.399994 
	C2.149304,248.462677 3.466343,247.022751 4.423756,245.374008 
	C44.031364,177.166138 83.633789,108.955215 123.107788,40.670055 
	C125.128250,37.174900 127.367844,36.038025 131.335938,36.043926 
	C211.151428,36.162655 290.967163,36.157963 370.782715,36.053257 
	C374.510803,36.048367 376.705536,36.950436 378.678040,40.363228 
	C418.306305,108.928070 458.080536,177.408539 497.812958,245.913177 
	C498.726532,247.488251 499.497406,249.146057 500.667419,250.882629 
	C501.000000,251.750000 501.000000,252.500000 501.000000,253.625000 
M380.154602,431.626709 
	C398.464355,399.890625 416.760895,368.146912 435.087921,336.420837 
	C450.249420,310.174500 465.398468,283.920685 480.685516,257.747559 
	C482.765686,254.186127 482.913025,251.438644 480.672882,247.736893 
	C472.741608,234.630966 465.234833,221.267914 457.582062,207.993744 
	C428.302460,157.206451 398.997650,106.433617 369.819580,55.588039 
	C367.782318,52.037827 365.305084,50.981609 361.380707,51.002304 
	C334.221863,51.145531 307.061920,51.077602 279.902313,51.077625 
	C233.414398,51.077671 186.926361,51.127113 140.438843,50.991051 
	C136.407364,50.979256 133.956360,52.226170 132.099426,55.750885 
	C129.073715,61.494164 125.721069,67.066330 122.468567,72.688835 
	C88.610611,131.218033 54.762398,189.752899 20.835672,248.242218 
	C18.942654,251.505753 18.893284,254.114517 20.870882,257.437134 
	C29.899525,272.606293 38.682804,287.921753 47.526783,303.200531 
	C75.894333,352.208099 104.215927,401.242432 132.740326,450.158508 
	C133.818695,452.007782 136.813461,453.826874 138.919815,453.832153 
	C213.566589,454.020538 288.213928,453.973541 362.861084,454.045319 
	C366.144165,454.048462 368.043274,452.831085 369.573669,450.015137 
	C372.832947,444.018005 376.374390,438.174194 380.154602,431.626709 
z"/>
<path fill="#383C57" opacity="1.000000" stroke="none" 
	d="
M379.977417,431.947113 
	C376.374390,438.174194 372.832947,444.018005 369.573669,450.015137 
	C368.043274,452.831085 366.144165,454.048462 362.861084,454.045319 
	C288.213928,453.973541 213.566589,454.020538 138.919815,453.832153 
	C136.813461,453.826874 133.818695,452.007782 132.740326,450.158508 
	C104.215927,401.242432 75.894333,352.208099 47.526783,303.200531 
	C38.682804,287.921753 29.899525,272.606293 20.870882,257.437134 
	C18.893284,254.114517 18.942654,251.505753 20.835672,248.242218 
	C54.762398,189.752899 88.610611,131.218033 122.468567,72.688835 
	C125.721069,67.066330 129.073715,61.494164 132.099426,55.750885 
	C133.956360,52.226170 136.407364,50.979256 140.438843,50.991051 
	C186.926361,51.127113 233.414398,51.077671 279.902313,51.077625 
	C307.061920,51.077602 334.221863,51.145531 361.380707,51.002304 
	C365.305084,50.981609 367.782318,52.037827 369.819580,55.588039 
	C398.997650,106.433617 428.302460,157.206451 457.582062,207.993744 
	C465.234833,221.267914 472.741608,234.630966 480.672882,247.736893 
	C482.913025,251.438644 482.765686,254.186127 480.685516,257.747559 
	C465.398468,283.920685 450.249420,310.174500 435.087921,336.420837 
	C416.760895,368.146912 398.464355,399.890625 379.977417,431.947113 
M406.822327,334.041107 
	C410.814606,334.047119 414.828613,333.794189 418.793549,334.126434 
	C423.469330,334.518250 425.453613,333.038300 425.111542,328.059937 
	C424.724762,322.430725 425.028259,316.754486 425.021301,311.098694 
	C425.012848,304.194611 425.008240,304.194611 418.093567,303.060822 
	C423.397797,285.333038 426.634613,267.231354 425.839874,248.718887 
	C425.337921,237.026337 423.450653,225.393250 422.873596,213.550858 
	C423.561188,211.858505 424.784393,210.184189 424.842102,208.470627 
	C425.071350,201.665710 424.758179,194.842072 425.004364,188.038345 
	C425.149017,184.041046 423.578979,182.915146 419.760742,182.871399 
	C417.022827,182.840027 414.298981,181.579941 411.543976,180.089264 
	C411.608704,169.563782 411.608704,169.563782 404.910980,168.309982 
	C394.658203,148.545868 380.885590,131.608734 363.830475,117.336418 
	C332.853363,91.413712 297.033722,77.689110 256.799103,76.148476 
	C225.208206,74.938820 195.247238,81.980972 167.498230,97.294662 
	C126.078949,120.152481 98.234734,154.280914 83.105476,199.616776 
	C81.517853,199.766357 79.930237,199.915924 78.104080,200.087967 
	C78.104080,210.294418 78.104080,220.024399 77.592247,230.407471 
	C77.067253,234.665283 76.288925,238.909683 76.062538,243.183304 
	C75.224625,259.001129 77.192345,274.602264 79.417374,290.573792 
	C78.943474,293.721344 78.155441,296.859406 78.060074,300.018402 
	C77.851814,306.916443 77.995674,313.825104 77.995674,321.073639 
	C82.965279,321.073639 86.951523,321.073639 91.020538,321.820831 
	C91.075119,322.570343 91.129700,323.319855 91.104408,324.958435 
	C92.046310,328.391235 88.024651,334.579651 96.749039,334.055786 
	C97.152306,334.090027 97.555565,334.124268 97.982910,334.884338 
	C98.453583,336.115143 98.762878,337.440216 99.418907,338.562714 
	C111.051613,358.466919 125.723450,375.762299 144.181534,389.645630 
	C184.520096,419.986633 229.859268,431.861633 279.600769,423.603729 
	C327.424622,415.664246 365.690125,391.291443 393.991089,351.781433 
	C397.903412,346.319580 400.699127,340.057892 404.622559,334.085449 
	C405.033936,334.059937 405.445282,334.034393 406.822327,334.041107 
z"/>
<path fill="#0B1532" opacity="1.000000" stroke="none" 
	d="
M404.011749,334.166504 
	C400.699127,340.057892 397.903412,346.319580 393.991089,351.781433 
	C365.690125,391.291443 327.424622,415.664246 279.600769,423.603729 
	C229.859268,431.861633 184.520096,419.986633 144.181534,389.645630 
	C125.723450,375.762299 111.051613,358.466919 99.418907,338.562714 
	C98.762878,337.440216 98.453583,336.115143 98.445747,334.499512 
	C135.056625,334.105377 171.204926,334.029877 207.352356,334.173401 
	C211.706726,334.190704 213.205734,332.978302 213.041611,328.529205 
	C212.740952,320.379517 213.011215,312.208771 213.506073,304.075256 
	C222.121140,304.106293 230.275436,304.006683 238.424988,304.159851 
	C241.857971,304.224365 243.231293,302.966156 243.105774,299.499146 
	C242.925323,294.514496 243.138794,289.516968 243.050186,284.527344 
	C242.842285,272.818451 245.151749,273.784973 231.791718,273.757751 
	C231.041885,273.396881 230.518433,273.199799 229.940277,272.542694 
	C229.876816,269.767242 229.624649,267.421143 229.911469,265.142914 
	C230.459930,260.786163 228.427429,259.685486 224.492111,259.911072 
	C220.707367,260.127991 216.894562,259.855347 213.067429,259.343445 
	C213.006531,257.897614 212.949860,256.906311 212.941452,255.914597 
	C212.832779,243.103516 212.834503,243.103500 199.693420,242.661392 
	C199.582184,238.261948 199.582184,234.322083 199.582184,229.936325 
	C197.261795,229.936325 195.479965,229.940842 193.698166,229.935654 
	C169.835831,229.866150 145.973495,229.795303 122.111801,229.275055 
	C122.087639,225.659729 122.296783,222.470703 121.982414,219.334167 
	C121.526939,214.789749 123.529778,213.705002 127.769165,213.739120 
	C149.096863,213.910706 170.426697,213.817581 191.755768,213.817184 
	C206.919403,213.816895 222.084259,213.710907 237.245911,213.883591 
	C241.479950,213.931824 243.424698,212.673492 243.118805,208.187195 
	C242.836060,204.040695 243.060410,199.859634 243.060501,195.693802 
	C243.060760,182.711136 243.060608,182.711136 230.004181,182.500626 
	C229.881744,180.050903 229.838837,178.051926 229.834763,176.052902 
	C229.820923,169.256744 229.826172,169.246292 223.051575,169.245590 
	C186.890167,169.241852 150.727875,169.367569 114.568336,169.107681 
	C109.259720,169.069550 108.100838,170.698914 108.352570,175.607193 
	C108.757668,183.506058 108.461311,191.440887 108.461311,199.370590 
	C99.775696,199.370590 91.816582,199.370590 83.857460,199.370590 
	C98.234734,154.280914 126.078949,120.152481 167.498230,97.294662 
	C195.247238,81.980972 225.208206,74.938820 256.799103,76.148476 
	C297.033722,77.689110 332.853363,91.413712 363.830475,117.336418 
	C380.885590,131.608734 394.658203,148.545868 404.527100,168.756546 
	C394.823242,169.220535 385.503204,169.248367 376.183197,169.253098 
	C359.206909,169.261719 342.229767,169.346268 325.254944,169.189438 
	C321.378296,169.153625 319.853424,170.298874 320.146149,174.322998 
	C320.471313,178.793045 320.219757,183.305023 320.219696,187.798752 
	C320.219574,199.886230 320.219666,199.886063 332.388062,200.260132 
	C332.553802,200.265228 332.718658,200.297546 332.942749,200.748474 
	C333.115631,203.666183 333.262177,206.151657 333.336182,208.639267 
	C333.451996,212.533356 335.217773,214.202301 339.288513,213.912003 
	C343.079651,213.641678 346.916565,214.013245 350.786377,214.561676 
	C350.832886,239.663376 350.826324,264.305634 350.667511,289.128662 
	C350.294037,289.545044 350.147095,289.820343 349.616302,290.264374 
	C341.030121,290.398071 332.898163,290.273376 324.777618,290.521912 
	C323.248657,290.568726 320.489166,292.058350 320.457764,292.957642 
	C320.136169,302.167358 320.260803,311.392670 320.260803,321.180145 
	C325.345123,321.180145 329.634125,321.180145 333.904602,321.633179 
	C333.885223,323.751068 333.880768,325.415894 333.884186,327.080719 
	C333.898438,334.077362 333.899292,334.077423 341.082581,334.086548 
	C362.058960,334.113220 383.035370,334.139862 404.011749,334.166504 
M290.459320,302.899200 
	C290.459320,298.939514 290.459320,294.979828 290.459320,290.438354 
	C280.686005,290.438354 271.556793,290.373627 262.431824,290.540771 
	C261.542114,290.557098 259.932190,291.988678 259.916809,292.787659 
	C259.738373,302.042084 259.802826,311.301239 259.802826,321.118011 
	C264.687042,321.118011 268.816254,321.118011 273.006134,322.030182 
	C273.022614,324.521942 273.197266,327.025177 273.017426,329.502686 
	C272.765594,332.972412 274.189575,334.214813 277.639313,334.131744 
	C284.944733,333.955902 292.257996,334.019836 299.566620,334.106140 
	C302.305786,334.138489 304.030823,333.533783 303.937378,330.285950 
	C303.798950,325.472321 303.909760,320.651611 303.910370,315.833893 
	C303.911804,304.253052 303.910828,304.253998 292.176971,303.891785 
	C291.679565,303.876404 291.183624,303.813660 290.459320,302.899200 
z"/>
<path fill="#F9CB13" opacity="1.000000" stroke="none" 
	d="
M332.883942,200.317169 
	C332.718658,200.297546 332.553802,200.265228 332.388062,200.260132 
	C320.219666,199.886063 320.219574,199.886230 320.219696,187.798752 
	C320.219757,183.305023 320.471313,178.793045 320.146149,174.322998 
	C319.853424,170.298874 321.378296,169.153625 325.254944,169.189438 
	C342.229767,169.346268 359.206909,169.261719 376.183197,169.253098 
	C385.503204,169.248367 394.823242,169.220535 404.611816,169.104248 
	C411.608704,169.563782 411.608704,169.563782 411.403931,180.881271 
	C411.407227,182.508331 411.550629,183.343399 411.620911,184.590683 
	C411.559387,187.998337 411.352722,191.014343 411.632874,193.984436 
	C412.071045,198.630051 410.564636,200.535172 405.555237,200.278442 
	C397.636963,199.872635 389.682648,200.170395 381.470856,200.170395 
	C381.470856,230.510391 381.470856,260.204315 381.470856,290.192810 
	C386.131470,290.192810 390.571716,290.192810 395.470825,290.277710 
	C400.809418,290.362640 405.689148,290.362640 410.796082,290.362640 
	C411.211243,295.322235 411.575836,299.678070 411.814240,304.473114 
	C411.717285,309.242615 411.746552,313.572937 411.625244,318.267761 
	C411.314514,319.405212 411.154388,320.178131 410.526062,320.960999 
	C384.679657,321.040710 359.301392,321.110413 333.923157,321.180145 
	C329.634125,321.180145 325.345123,321.180145 320.260803,321.180145 
	C320.260803,311.392670 320.136169,302.167358 320.457764,292.957642 
	C320.489166,292.058350 323.248657,290.568726 324.777618,290.521912 
	C332.898163,290.273376 341.030121,290.398071 349.904053,290.204926 
	C350.706573,289.660217 350.763153,289.304047 350.819763,288.947906 
	C350.826324,264.305634 350.832886,239.663376 350.859985,214.096741 
	C350.873138,210.055527 350.722229,206.930466 350.900360,203.824265 
	C351.064392,200.964737 349.822754,200.074173 347.141815,200.160919 
	C342.392456,200.314590 337.636902,200.275574 332.883942,200.317169 
z"/>
<path fill="#F6C914" opacity="1.000000" stroke="none" 
	d="
M83.481468,199.493683 
	C91.816582,199.370590 99.775696,199.370590 108.461311,199.370590 
	C108.461311,191.440887 108.757668,183.506058 108.352570,175.607193 
	C108.100838,170.698914 109.259720,169.069550 114.568336,169.107681 
	C150.727875,169.367569 186.890167,169.241852 223.051575,169.245590 
	C229.826172,169.246292 229.820923,169.256744 229.834763,176.052902 
	C229.838837,178.051926 229.881744,180.050903 229.906830,182.963013 
	C229.883331,187.697433 229.655319,191.531586 229.894684,195.336365 
	C230.128174,199.047729 228.723221,200.309692 225.038406,200.247314 
	C214.739120,200.073029 204.434860,200.168228 194.132660,200.193298 
	C170.043137,200.251892 145.953644,200.331680 121.415192,200.321777 
	C117.085564,200.240692 113.204910,200.240692 109.005203,200.240692 
	C109.005203,204.889954 109.005203,208.943604 108.920380,213.458496 
	C108.970978,219.244049 109.106392,224.568344 108.962044,229.915558 
	C108.495354,229.947052 108.308418,229.955627 107.645760,229.993744 
	C101.750565,230.083633 96.331085,230.143967 90.458366,230.151108 
	C86.038109,229.983383 82.071091,229.868881 78.104080,229.754379 
	C78.104080,220.024399 78.104080,210.294418 78.104080,200.087967 
	C79.930237,199.915924 81.517853,199.766357 83.481468,199.493683 
z"/>
<path fill="#F9CC13" opacity="1.000000" stroke="none" 
	d="
M90.937759,321.073639 
	C86.951523,321.073639 82.965279,321.073639 77.995674,321.073639 
	C77.995674,313.825104 77.851814,306.916443 78.060074,300.018402 
	C78.155441,296.859406 78.943474,293.721344 80.193939,290.450775 
	C84.959450,290.353577 88.948372,290.398132 92.937340,290.402252 
	C128.344940,290.438812 163.752548,290.468231 199.257599,290.625092 
	C199.521835,290.895477 199.715683,290.972198 199.841309,291.438477 
	C199.800476,295.948456 199.854935,300.000519 199.787384,304.503937 
	C199.665405,310.201263 199.665405,315.447266 199.665405,321.073639 
	C162.801865,321.073639 126.869812,321.073639 90.937759,321.073639 
z"/>
<path fill="#0B1532" opacity="1.000000" stroke="none" 
	d="
M199.160156,290.499756 
	C163.752548,290.468231 128.344940,290.438812 92.937340,290.402252 
	C88.948372,290.398132 84.959450,290.353577 80.518349,290.221741 
	C77.192345,274.602264 75.224625,259.001129 76.062538,243.183304 
	C76.288925,238.909683 77.067253,234.665283 77.848160,230.080933 
	C82.071091,229.868881 86.038109,229.983383 90.507423,230.599030 
	C91.055809,233.756653 91.234390,236.419128 91.114731,239.068146 
	C90.962112,242.446396 92.341934,243.953445 95.781746,243.854309 
	C99.930542,243.734726 104.086395,243.859634 108.333138,244.323318 
	C108.446922,248.756989 108.610054,252.752151 108.440659,256.733154 
	C108.308281,259.843964 109.614983,260.827728 112.573570,260.717529 
	C115.713326,260.600525 118.867493,260.870331 122.000824,261.437439 
	C121.980499,263.401489 121.969650,264.899323 121.969788,266.397125 
	C121.970490,274.001251 121.971474,274.004395 129.529907,274.007812 
	C152.663239,274.018311 175.796555,274.026215 199.014130,274.494476 
	C199.118958,280.135803 199.139557,285.317780 199.160156,290.499756 
z"/>
<path fill="#0C1632" opacity="1.000000" stroke="none" 
	d="
M411.940430,304.033905 
	C411.575836,299.678070 411.211243,295.322235 410.796082,290.362640 
	C405.689148,290.362640 400.809418,290.362640 395.421570,289.798523 
	C394.894836,265.907654 394.949524,242.580399 394.787994,219.254639 
	C394.760010,215.209457 395.937714,213.613632 400.161194,213.725571 
	C407.477844,213.919434 414.807983,213.604431 422.149902,213.559509 
	C422.167389,213.616165 422.184753,213.733490 422.184753,213.733490 
	C423.450653,225.393250 425.337921,237.026337 425.839874,248.718887 
	C426.634613,267.231354 423.397797,285.333038 417.807800,303.531372 
	C417.522064,304.001892 417.099548,304.175201 416.672180,304.106262 
	C414.810028,304.036194 413.375244,304.035065 411.940430,304.033905 
z"/>
<path fill="#534D29" opacity="1.000000" stroke="none" 
	d="
M90.979149,321.447235 
	C126.869812,321.073639 162.801865,321.073639 199.665405,321.073639 
	C199.665405,315.447266 199.665405,310.201263 200.255829,304.472900 
	C204.890518,303.986755 208.934784,303.983032 212.995239,303.995972 
	C213.011459,304.012634 213.043411,304.046783 213.043411,304.046783 
	C213.011215,312.208771 212.740952,320.379517 213.041611,328.529205 
	C213.205734,332.978302 211.706726,334.190704 207.352356,334.173401 
	C171.204926,334.029877 135.056625,334.105377 98.433708,334.136597 
	C97.555565,334.124268 97.152306,334.090027 96.394516,333.668121 
	C94.421425,330.210083 92.802856,327.139740 91.184288,324.069366 
	C91.129700,323.319855 91.075119,322.570343 90.979149,321.447235 
z"/>
<path fill="#534D29" opacity="1.000000" stroke="none" 
	d="
M333.904602,321.633179 
	C359.301392,321.110413 384.679657,321.040710 410.466949,321.320374 
	C409.202881,325.782776 407.529755,329.895813 405.856628,334.008850 
	C405.445282,334.034393 405.033936,334.059937 404.317139,334.125977 
	C383.035370,334.139862 362.058960,334.113220 341.082581,334.086548 
	C333.899292,334.077423 333.898438,334.077362 333.884186,327.080719 
	C333.880768,325.415894 333.885223,323.751068 333.904602,321.633179 
z"/>
<path fill="#746941" opacity="1.000000" stroke="none" 
	d="
M406.339478,334.024994 
	C407.529755,329.895813 409.202881,325.782776 410.935120,321.310394 
	C411.154388,320.178131 411.314514,319.405212 411.879486,318.108582 
	C413.889404,313.114990 415.494476,308.645111 417.099548,304.175201 
	C417.099548,304.175201 417.522064,304.001892 417.726440,303.898682 
	C425.008240,304.194611 425.012848,304.194611 425.021301,311.098694 
	C425.028259,316.754486 424.724762,322.430725 425.111542,328.059937 
	C425.453613,333.038300 423.469330,334.518250 418.793549,334.126434 
	C414.828613,333.794189 410.814606,334.047119 406.339478,334.024994 
z"/>
<path fill="#857535" opacity="1.000000" stroke="none" 
	d="
M411.694000,184.178452 
	C411.550629,183.343399 411.407227,182.508331 411.416382,181.270660 
	C414.298981,181.579941 417.022827,182.840027 419.760742,182.871399 
	C423.578979,182.915146 425.149017,184.041046 425.004364,188.038345 
	C424.758179,194.842072 425.071350,201.665710 424.842102,208.470627 
	C424.784393,210.184189 423.561188,211.858505 422.529175,213.642181 
	C422.184753,213.733490 422.167389,213.616165 422.051880,213.224442 
	C420.004486,206.155716 418.253204,199.418610 416.060089,192.828537 
	C415.051086,189.796631 413.176270,187.052856 411.694000,184.178452 
z"/>
<path fill="#696144" opacity="1.000000" stroke="none" 
	d="
M91.144348,324.513916 
	C92.802856,327.139740 94.421425,330.210083 96.090248,333.655090 
	C88.024651,334.579651 92.046310,328.391235 91.144348,324.513916 
z"/>
<path fill="#FACC13" opacity="1.000000" stroke="none" 
	d="
M122.015366,260.971222 
	C118.867493,260.870331 115.713326,260.600525 112.573570,260.717529 
	C109.614983,260.827728 108.308281,259.843964 108.440659,256.733154 
	C108.610054,252.752151 108.446922,248.756989 108.457596,243.948608 
	C108.365891,238.740936 108.243690,234.352570 108.121483,229.964203 
	C108.308418,229.955627 108.495354,229.947052 109.406967,229.909576 
	C114.124817,229.828720 118.117981,229.776764 122.111153,229.724808 
	C145.973495,229.795303 169.835831,229.866150 193.698166,229.935654 
	C195.479965,229.940842 197.261795,229.936325 199.582184,229.936325 
	C199.582184,234.322083 199.582184,238.261948 199.587448,243.111023 
	C199.686676,249.357895 199.780640,254.695541 199.717041,260.082031 
	C199.355118,260.224792 199.184814,260.361237 198.578430,260.581726 
	C192.802078,260.647888 187.495895,260.673035 182.189713,260.697235 
	C162.131592,260.788696 142.073486,260.879913 122.015366,260.971222 
z"/>
<path fill="#544E29" opacity="1.000000" stroke="none" 
	d="
M122.111801,229.275055 
	C118.117981,229.776764 114.124817,229.828720 109.686722,229.886658 
	C109.106392,224.568344 108.970978,219.244049 109.384567,213.468887 
	C122.312218,213.063293 122.312218,213.063293 121.864151,200.402878 
	C145.953644,200.331680 170.043137,200.251892 194.132660,200.193298 
	C204.434860,200.168228 214.739120,200.073029 225.038406,200.247314 
	C228.723221,200.309692 230.128174,199.047729 229.894684,195.336365 
	C229.655319,191.531586 229.883331,187.697433 230.004150,183.413742 
	C243.060608,182.711136 243.060760,182.711136 243.060501,195.693802 
	C243.060410,199.859634 242.836060,204.040695 243.118805,208.187195 
	C243.424698,212.673492 241.479950,213.931824 237.245911,213.883591 
	C222.084259,213.710907 206.919403,213.816895 191.755768,213.817184 
	C170.426697,213.817581 149.096863,213.910706 127.769165,213.739120 
	C123.529778,213.705002 121.526939,214.789749 121.982414,219.334167 
	C122.296783,222.470703 122.087639,225.659729 122.111801,229.275055 
z"/>
<path fill="#ECC115" opacity="1.000000" stroke="none" 
	d="
M199.048599,260.540222 
	C199.184814,260.361237 199.355118,260.224792 200.190903,260.050140 
	C204.912903,259.912231 209.003494,259.855042 213.094086,259.797852 
	C216.894562,259.855347 220.707367,260.127991 224.492111,259.911072 
	C228.427429,259.685486 230.459930,260.786163 229.911469,265.142914 
	C229.624649,267.421143 229.876816,269.767242 229.870865,273.001373 
	C229.931122,277.946198 230.006088,281.972321 230.007751,286.411591 
	C230.244141,290.009430 228.753448,291.199524 225.625870,291.131989 
	C221.380936,291.040283 217.129593,291.244904 212.432724,291.232269 
	C207.968491,291.088287 203.952545,291.034424 199.936584,290.980591 
	C199.715683,290.972198 199.521835,290.895477 199.257599,290.625092 
	C199.139557,285.317780 199.118958,280.135803 199.087402,274.030792 
	C199.067169,268.918579 199.057892,264.729401 199.048599,260.540222 
z"/>
<path fill="#F6C914" opacity="1.000000" stroke="none" 
	d="
M272.945496,321.118011 
	C268.816254,321.118011 264.687042,321.118011 259.802826,321.118011 
	C259.802826,311.301239 259.738373,302.042084 259.916809,292.787659 
	C259.932190,291.988678 261.542114,290.557098 262.431824,290.540771 
	C271.556793,290.373627 280.686005,290.438354 290.459320,290.438354 
	C290.459320,294.979828 290.459320,298.939514 290.461517,303.807251 
	C290.463715,309.960510 290.463715,315.205719 290.463715,321.118011 
	C284.122528,321.118011 278.534027,321.118011 272.945496,321.118011 
z"/>
<path fill="#544E29" opacity="1.000000" stroke="none" 
	d="
M272.975830,321.574097 
	C278.534027,321.118011 284.122528,321.118011 290.463715,321.118011 
	C290.463715,315.205719 290.463715,309.960510 290.575348,304.244141 
	C291.183624,303.813660 291.679565,303.876404 292.176971,303.891785 
	C303.910828,304.253998 303.911804,304.253052 303.910370,315.833893 
	C303.909760,320.651611 303.798950,325.472321 303.937378,330.285950 
	C304.030823,333.533783 302.305786,334.138489 299.566620,334.106140 
	C292.257996,334.019836 284.944733,333.955902 277.639313,334.131744 
	C274.189575,334.214813 272.765594,332.972412 273.017426,329.502686 
	C273.197266,327.025177 273.022614,324.521942 272.975830,321.574097 
z"/>
<path fill="#534D29" opacity="1.000000" stroke="none" 
	d="
M212.880997,291.322418 
	C217.129593,291.244904 221.380936,291.040283 225.625870,291.131989 
	C228.753448,291.199524 230.244141,290.009430 230.356262,286.250885 
	C231.191422,281.758545 231.604752,277.840027 232.018066,273.921539 
	C245.151749,273.784973 242.842285,272.818451 243.050186,284.527344 
	C243.138794,289.516968 242.925323,294.514496 243.105774,299.499146 
	C243.231293,302.966156 241.857971,304.224365 238.424988,304.159851 
	C230.275436,304.006683 222.121140,304.106293 213.506073,304.075256 
	C213.043411,304.046783 213.011459,304.012634 212.977234,303.538666 
	C212.922333,299.150604 212.901657,295.236511 212.880997,291.322418 
z"/>
<path fill="#514B29" opacity="1.000000" stroke="none" 
	d="
M332.942749,200.748474 
	C337.636902,200.275574 342.392456,200.314590 347.141815,200.160919 
	C349.822754,200.074173 351.064392,200.964737 350.900360,203.824265 
	C350.722229,206.930466 350.873138,210.055527 350.806946,213.637299 
	C346.916565,214.013245 343.079651,213.641678 339.288513,213.912003 
	C335.217773,214.202301 333.451996,212.533356 333.336182,208.639267 
	C333.262177,206.151657 333.115631,203.666183 332.942749,200.748474 
z"/>
<path fill="#554F29" opacity="1.000000" stroke="none" 
	d="
M213.067429,259.343475 
	C209.003494,259.855042 204.912903,259.912231 200.348450,260.001282 
	C199.780640,254.695541 199.686676,249.357895 199.698669,243.570618 
	C212.834503,243.103500 212.832779,243.103516 212.941452,255.914597 
	C212.949860,256.906311 213.006531,257.897614 213.067429,259.343475 
z"/>
<path fill="#554E29" opacity="1.000000" stroke="none" 
	d="
M231.791718,273.757751 
	C231.604752,277.840027 231.191422,281.758545 230.429565,285.837738 
	C230.006088,281.972321 229.931122,277.946198 229.925568,273.461395 
	C230.518433,273.199799 231.041885,273.396881 231.791718,273.757751 
z"/>
<path fill="#514B29" opacity="1.000000" stroke="none" 
	d="
M350.667480,289.128662 
	C350.763153,289.304047 350.706573,289.660217 350.362244,290.075806 
	C350.147095,289.820343 350.294037,289.545044 350.667480,289.128662 
z"/>
<path fill="#564F29" opacity="1.000000" stroke="none" 
	d="
M411.620911,184.590683 
	C413.176270,187.052856 415.051086,189.796631 416.060089,192.828537 
	C418.253204,199.418610 420.004486,206.155716 422.034393,213.167786 
	C414.807983,213.604431 407.477844,213.919434 400.161194,213.725571 
	C395.937714,213.613632 394.760010,215.209457 394.787994,219.254639 
	C394.949524,242.580399 394.894836,265.907654 394.962708,289.713623 
	C390.571716,290.192810 386.131470,290.192810 381.470856,290.192810 
	C381.470856,260.204315 381.470856,230.510391 381.470856,200.170395 
	C389.682648,200.170395 397.636963,199.872635 405.555237,200.278442 
	C410.564636,200.535172 412.071045,198.630051 411.632874,193.984436 
	C411.352722,191.014343 411.559387,187.998337 411.620911,184.590683 
z"/>
<path fill="#56502A" opacity="1.000000" stroke="none" 
	d="
M416.672180,304.106262 
	C415.494476,308.645111 413.889404,313.114990 412.030090,317.744080 
	C411.746552,313.572937 411.717285,309.242615 411.814209,304.473114 
	C413.375244,304.035065 414.810028,304.036194 416.672180,304.106262 
z"/>
<path fill="#554E29" opacity="1.000000" stroke="none" 
	d="
M107.645760,229.993744 
	C108.243690,234.352570 108.365891,238.740936 108.363647,243.503998 
	C104.086395,243.859634 99.930542,243.734726 95.781746,243.854309 
	C92.341934,243.953445 90.962112,242.446396 91.114731,239.068146 
	C91.234390,236.419128 91.055809,233.756653 90.960670,230.652237 
	C96.331085,230.143967 101.750565,230.083633 107.645760,229.993744 
z"/>
<path fill="#0C1632" opacity="1.000000" stroke="none" 
	d="
M121.415192,200.321777 
	C122.312218,213.063293 122.312218,213.063293 109.469391,213.007645 
	C109.005203,208.943604 109.005203,204.889954 109.005203,200.240692 
	C113.204910,200.240692 117.085564,200.240692 121.415192,200.321777 
z"/>
<path fill="#0E1831" opacity="1.000000" stroke="none" 
	d="
M212.432724,291.232269 
	C212.901657,295.236511 212.922333,299.150604 212.961029,303.522003 
	C208.934784,303.983032 204.890518,303.986755 200.377823,304.021545 
	C199.854935,300.000519 199.800476,295.948456 199.841309,291.438477 
	C203.952545,291.034424 207.968491,291.088287 212.432724,291.232269 
z"/>
<path fill="#534D29" opacity="1.000000" stroke="none" 
	d="
M198.578430,260.581726 
	C199.057892,264.729401 199.067169,268.918579 199.003174,273.571442 
	C175.796555,274.026215 152.663239,274.018311 129.529907,274.007812 
	C121.971474,274.004395 121.970490,274.001251 121.969788,266.397125 
	C121.969650,264.899323 121.980499,263.401489 122.000824,261.437439 
	C142.073486,260.879913 162.131592,260.788696 182.189713,260.697235 
	C187.495895,260.673035 192.802078,260.647888 198.578430,260.581726 
z"/>
</svg>