<svg version="1.1" id="Layer_1" xmlns="http://www.w3.org/2000/svg" xmlns:xlink="http://www.w3.org/1999/xlink" x="0px" y="0px"
	 width="40" height="40" viewBox="0 0 500 500" enable-background="new 0 0 500 500" xml:space="preserve">
<path fill="#000B29" opacity="1.000000" stroke="none" 
	d="
M1.000003,250.000000 
	C1.000000,167.036087 1.000000,84.072166 1.000000,1.054127 
	C167.558105,1.054127 334.116241,1.054127 501.000000,1.054127 
	C501.000000,84.021729 501.000000,167.043884 500.644409,250.532959 
	C499.592163,249.866119 498.868225,248.748138 498.202698,247.596405 
	C458.399048,178.716568 418.577637,109.846992 378.868591,40.912666 
	C376.905792,37.505352 374.821442,36.128677 370.738281,36.135864 
	C291.073730,36.276009 211.408737,36.286613 131.744293,36.117344 
	C127.237328,36.107765 125.039223,37.605061 122.877228,41.360409 
	C83.596077,109.591278 44.175407,177.741852 4.727951,245.876816 
	C3.820030,247.445007 2.257299,248.634094 1.000003,250.000000 
z"/>
<path fill="#000B29" opacity="1.000000" stroke="none" 
	d="
M501.000000,254.000000 
	C501.000000,336.297363 501.000000,418.594757 501.000000,500.946045 
	C334.442108,500.946045 167.884186,500.946045 1.000000,500.946045 
	C1.000000,418.978271 1.000000,336.956116 1.350227,254.506683 
	C42.333397,324.326935 82.991325,394.560059 123.518059,464.868805 
	C125.350883,468.048523 127.275452,469.096954 130.895935,469.091858 
	C210.700745,468.979340 290.505798,468.970154 370.310516,469.107178 
	C374.479675,469.114349 376.757141,467.982971 378.883118,464.287415 
	C418.271912,395.818268 457.816010,327.438385 497.358582,259.057770 
	C498.393372,257.268341 499.778320,255.681381 501.000000,254.000000 
z"/>
<path fill="#F7CA14" opacity="1.000000" stroke="none" 
	d="
M501.000000,253.625000 
	C499.778320,255.681381 498.393372,257.268341 497.358582,259.057770 
	C457.816010,327.438385 418.271912,395.818268 378.883118,464.287415 
	C376.757141,467.982971 374.479675,469.114349 370.310516,469.107178 
	C290.505798,468.970154 210.700745,468.979340 130.895935,469.091858 
	C127.275452,469.096954 125.350883,468.048523 123.518059,464.868805 
	C82.991325,394.560059 42.333397,324.326935 1.350227,254.039703 
	C1.000000,252.933334 1.000000,251.866653 1.000003,250.399994 
	C2.257299,248.634094 3.820030,247.445007 4.727951,245.876816 
	C44.175407,177.741852 83.596077,109.591278 122.877228,41.360409 
	C125.039223,37.605061 127.237328,36.107765 131.744293,36.117344 
	C211.408737,36.286613 291.073730,36.276009 370.738281,36.135864 
	C374.821442,36.128677 376.905792,37.505352 378.868591,40.912666 
	C418.577637,109.846992 458.399048,178.716568 498.202698,247.596405 
	C498.868225,248.748138 499.592163,249.866119 500.644409,250.999939 
	C501.000000,251.750000 501.000000,252.500000 501.000000,253.625000 
M122.924919,433.544434 
	C126.005241,438.876343 129.304214,444.097321 132.086014,449.580688 
	C133.827194,453.012848 135.990997,454.099304 139.861588,454.092316 
	C213.673691,453.959381 287.486176,453.953644 361.298248,454.096344 
	C365.657806,454.104797 368.016632,452.888855 370.243073,449.014862 
	C407.060852,384.952423 444.040375,320.982880 481.095581,257.057373 
	C482.906128,253.933899 482.979034,251.709503 481.136414,248.527191 
	C443.861908,184.152084 406.693787,119.715256 369.630646,55.218224 
	C367.772675,51.984970 365.692139,51.090298 362.133759,51.095200 
	C288.154907,51.197128 214.175858,51.207226 140.197113,51.076180 
	C136.171066,51.069046 134.013138,52.343773 132.027527,55.791115 
	C95.065262,119.963638 58.013508,184.084778 20.819927,248.123444 
	C18.750257,251.686935 18.960260,254.128433 20.937365,257.530243 
	C54.887825,315.945648 88.709557,374.435852 122.924919,433.544434 
z"/>
<path fill="#393D56" opacity="1.000000" stroke="none" 
	d="
M122.742241,433.227051 
	C88.709557,374.435852 54.887825,315.945648 20.937365,257.530243 
	C18.960260,254.128433 18.750257,251.686935 20.819927,248.123444 
	C58.013508,184.084778 95.065262,119.963638 132.027527,55.791115 
	C134.013138,52.343773 136.171066,51.069046 140.197113,51.076180 
	C214.175858,51.207226 288.154907,51.197128 362.133759,51.095200 
	C365.692139,51.090298 367.772675,51.984970 369.630646,55.218224 
	C406.693787,119.715256 443.861908,184.152084 481.136414,248.527191 
	C482.979034,251.709503 482.906128,253.933899 481.095581,257.057373 
	C444.040375,320.982880 407.060852,384.952423 370.243073,449.014862 
	C368.016632,452.888855 365.657806,454.104797 361.298248,454.096344 
	C287.486176,453.953644 213.673691,453.959381 139.861588,454.092316 
	C135.990997,454.099304 133.827194,453.012848 132.086014,449.580688 
	C129.304214,444.097321 126.005241,438.876343 122.742241,433.227051 
M406.818054,334.038574 
	C410.639191,334.045105 414.460358,334.062256 418.281464,334.055847 
	C425.003510,334.044525 425.008362,334.038483 425.018677,327.067841 
	C425.026520,321.751434 425.026245,316.435028 425.018585,311.118622 
	C425.008606,304.202942 425.003906,304.202942 418.096436,303.061981 
	C423.452942,285.171326 426.668182,266.901550 425.842072,248.219635 
	C425.332245,236.689651 423.453583,225.220184 422.870880,213.528519 
	C423.556030,212.001724 424.785095,210.491730 424.832916,208.945236 
	C425.048126,201.984619 424.757965,195.007828 424.994873,188.048630 
	C425.130463,184.065109 423.553162,182.931625 419.746460,182.877548 
	C417.010803,182.838684 414.292419,181.581940 411.541260,180.089493 
	C411.587555,169.572556 411.587555,169.572556 404.911255,168.312881 
	C394.907227,149.212570 381.825928,132.546951 365.291931,118.681229 
	C325.108582,84.982613 279.009186,70.853340 226.923630,77.939713 
	C179.591156,84.379402 141.384232,107.133263 112.048988,144.666138 
	C99.221138,161.078690 89.714157,179.347473 83.142601,199.656616 
	C78.998550,199.091583 77.750092,200.926361 77.905609,204.995255 
	C78.220573,213.235809 78.061821,221.494461 77.597298,230.407837 
	C77.068283,234.831955 76.291718,239.242859 76.054939,243.682556 
	C75.220062,259.337097 77.240517,274.768127 79.419815,290.576202 
	C78.946068,293.722992 78.158295,296.860321 78.062965,300.018555 
	C77.854782,306.915131 77.998581,313.822357 77.998581,321.071899 
	C82.966225,321.071899 86.950546,321.071899 91.022301,321.821106 
	C91.079964,322.572906 91.137619,323.324707 91.114075,324.963409 
	C91.997139,328.425934 88.075356,334.556274 96.750595,334.055786 
	C97.150551,334.090820 97.550507,334.125885 97.978676,334.886261 
	C98.632027,336.398804 99.133194,338.000854 99.961899,339.410309 
	C110.097221,356.648132 122.580330,371.931915 138.062790,384.659790 
	C179.688248,418.879333 227.303223,432.314301 280.371490,423.439972 
	C327.151978,415.617126 364.726898,391.756592 392.804291,353.425110 
	C397.169342,347.465942 400.310577,340.610382 404.624512,334.087708 
	C405.033447,334.060364 405.442383,334.033051 406.818054,334.038574 
z"/>
<path fill="#0B1532" opacity="1.000000" stroke="none" 
	d="
M404.017731,334.169312 
	C400.310577,340.610382 397.169342,347.465942 392.804291,353.425110 
	C364.726898,391.756592 327.151978,415.617126 280.371490,423.439972 
	C227.303223,432.314301 179.688248,418.879333 138.062790,384.659790 
	C122.580330,371.931915 110.097221,356.648132 99.961899,339.410309 
	C99.133194,338.000854 98.632027,336.398804 98.440598,334.502869 
	C135.044708,334.109985 171.187119,334.036194 207.328735,334.175507 
	C211.667084,334.192230 213.198807,332.984985 213.037674,328.529907 
	C212.742966,320.381195 213.012939,312.212097 213.509598,304.080078 
	C222.118805,304.111359 230.267578,304.017365 238.412064,304.162720 
	C241.831528,304.223694 243.225937,302.957733 243.106018,299.496216 
	C242.933411,294.514313 243.141174,289.520477 243.053528,284.534088 
	C242.849579,272.930573 245.148880,273.741516 231.788910,273.760620 
	C231.037903,273.402435 230.516434,273.202576 229.940247,272.542786 
	C229.876770,269.767548 229.624725,267.421600 229.911331,265.143433 
	C230.459381,260.787079 228.426636,259.685974 224.491699,259.911133 
	C220.707062,260.127716 216.894440,259.855377 213.067459,259.343445 
	C213.005661,257.898712 212.947754,256.908630 212.938843,255.918106 
	C212.823730,243.129608 212.825500,243.129593 199.693100,242.661377 
	C199.581635,238.262131 199.581635,234.322281 199.581635,229.936310 
	C197.260574,229.936310 195.478790,229.940842 193.697021,229.935654 
	C169.835098,229.866180 145.973160,229.795319 122.112976,229.275040 
	C122.089432,225.994095 122.039017,223.162888 122.043922,220.331787 
	C122.055191,213.828323 122.066124,213.812286 128.782532,213.809875 
	C150.769257,213.801956 172.755981,213.806824 194.742706,213.806732 
	C208.567688,213.806671 222.392700,213.818176 236.217667,213.801331 
	C242.894150,213.793182 243.030899,213.644974 243.059891,207.198593 
	C243.077103,203.367645 243.063583,199.536560 243.063599,195.705536 
	C243.063660,182.688065 243.063614,182.688065 230.004196,182.500732 
	C229.881592,179.553513 229.616653,177.030914 229.884644,174.566269 
	C230.338486,170.392273 228.705811,169.153290 224.566116,169.168091 
	C187.440994,169.300690 150.315018,169.293457 113.189842,169.169937 
	C109.465553,169.157562 108.265991,170.216278 108.381058,173.975601 
	C108.638985,182.401581 108.461807,190.840866 108.461807,199.482910 
	C99.917366,199.482910 91.964272,199.482910 84.011177,199.482910 
	C89.714157,179.347473 99.221138,161.078690 112.048988,144.666138 
	C141.384232,107.133263 179.591156,84.379402 226.923630,77.939713 
	C279.009186,70.853340 325.108582,84.982613 365.291931,118.681229 
	C381.825928,132.546951 394.907227,149.212570 404.529541,168.758240 
	C394.827667,169.221008 385.507477,169.248779 376.187317,169.253510 
	C359.210754,169.262131 342.233368,169.346237 325.258240,169.190247 
	C321.385956,169.154678 319.832733,170.292847 320.148743,174.321503 
	C320.473114,178.456955 320.219849,182.637711 320.219788,186.798630 
	C320.219666,199.800385 320.219757,199.800385 332.945312,200.754288 
	C333.079742,203.485687 333.299530,205.786758 333.193604,208.072754 
	C333.003174,212.181213 334.542358,214.138443 338.931488,213.890854 
	C342.848969,213.669876 346.798126,214.009933 350.786377,214.561859 
	C350.832855,239.663223 350.826263,264.305176 350.667969,289.128326 
	C350.295502,289.545441 350.148285,289.820679 349.616486,290.264587 
	C341.030518,290.398621 332.898651,290.274200 324.778229,290.522736 
	C323.249207,290.569550 320.489594,292.058716 320.458191,292.957764 
	C320.136627,302.167389 320.261200,311.392609 320.261200,321.180145 
	C325.345215,321.180145 329.634155,321.180145 333.902832,321.633087 
	C333.880676,323.417664 333.876160,324.749298 333.877380,326.080933 
	C333.884613,334.088531 333.885040,334.082977 342.097473,334.092041 
	C362.737549,334.114868 383.377655,334.143188 404.017731,334.169312 
M290.510376,303.331696 
	C290.510376,299.228516 290.510376,295.125366 290.510376,290.451843 
	C280.575775,290.451843 271.332245,290.401703 262.091614,290.543304 
	C261.320190,290.555084 259.917542,291.848572 259.906219,292.563934 
	C259.757904,301.921906 259.807678,311.283020 259.807678,321.117981 
	C264.702393,321.117981 268.823853,321.117981 273.006500,322.029968 
	C273.023071,324.363098 273.239899,326.716003 273.011963,329.024994 
	C272.614960,333.046753 274.361542,334.275909 278.215210,334.147888 
	C285.040924,333.921112 291.884460,333.930511 298.710938,334.145508 
	C302.493195,334.264648 304.260712,333.184052 303.969940,329.087219 
	C303.675659,324.941498 304.009735,320.755554 303.887268,316.592529 
	C303.470520,302.427246 307.149261,303.786133 290.510376,303.331696 
z"/>
<path fill="#F9CB13" opacity="1.000000" stroke="none" 
	d="
M350.819702,288.947113 
	C350.826263,264.305176 350.832855,239.663223 350.859711,214.095932 
	C350.872772,210.052399 350.719147,206.925629 350.901276,203.818542 
	C351.069122,200.954712 349.836426,200.069824 347.147888,200.159836 
	C342.396759,200.318909 337.638885,200.275711 332.883820,200.317169 
	C320.219757,199.800385 320.219666,199.800385 320.219788,186.798630 
	C320.219849,182.637711 320.473114,178.456955 320.148743,174.321503 
	C319.832733,170.292847 321.385956,169.154678 325.258240,169.190247 
	C342.233368,169.346237 359.210754,169.262131 376.187317,169.253510 
	C385.507477,169.248779 394.827667,169.221008 404.617126,169.105423 
	C411.587555,169.572556 411.587555,169.572556 411.403961,180.881943 
	C411.409576,182.508636 411.552490,183.342865 411.634125,184.568024 
	C411.572479,188.122177 411.336517,191.307236 411.627106,194.443497 
	C412.061066,199.127472 410.117950,200.460083 405.590607,200.266449 
	C397.662750,199.927429 389.709930,200.171890 381.483337,200.171890 
	C381.483337,230.497482 381.483337,260.193604 381.483337,290.193054 
	C386.129089,290.193054 390.571014,290.193054 395.471680,290.278015 
	C400.810059,290.363007 405.689636,290.363007 410.796356,290.363007 
	C411.211426,295.322754 411.575928,299.678314 411.812439,304.474915 
	C411.715271,309.245911 411.746094,313.575836 411.627991,318.270630 
	C411.317505,319.407318 411.155945,320.179138 410.526154,320.960938 
	C384.679657,321.040680 359.301392,321.110413 333.923096,321.180145 
	C329.634155,321.180145 325.345215,321.180145 320.261200,321.180145 
	C320.261200,311.392609 320.136627,302.167389 320.458191,292.957764 
	C320.489594,292.058716 323.249207,290.569550 324.778229,290.522736 
	C332.898651,290.274200 341.030518,290.398621 349.904358,290.204987 
	C350.706757,289.659729 350.763245,289.303436 350.819702,288.947113 
z"/>
<path fill="#F6C914" opacity="1.000000" stroke="none" 
	d="
M83.576889,199.569763 
	C91.964272,199.482910 99.917366,199.482910 108.461807,199.482910 
	C108.461807,190.840866 108.638985,182.401581 108.381058,173.975601 
	C108.265991,170.216278 109.465553,169.157562 113.189842,169.169937 
	C150.315018,169.293457 187.440994,169.300690 224.566116,169.168091 
	C228.705811,169.153290 230.338486,170.392273 229.884644,174.566269 
	C229.616653,177.030914 229.881592,179.553513 229.906601,182.963013 
	C229.881760,187.863220 229.704285,191.857239 229.880386,195.835571 
	C230.024368,199.087997 228.740753,200.261688 225.531525,200.226257 
	C215.397232,200.114349 205.260864,200.170227 195.125381,200.194778 
	C170.704788,200.253952 146.284256,200.332199 121.414780,200.321762 
	C117.085419,200.240768 113.204979,200.240768 109.005203,200.240768 
	C109.005203,204.890350 109.005203,208.943802 108.919945,213.458405 
	C108.971085,219.243576 109.107483,224.567612 108.963745,229.914581 
	C108.496445,229.946426 108.309280,229.955322 107.646446,229.993774 
	C101.750992,230.083649 96.331192,230.143967 90.458153,230.151093 
	C86.036064,229.980484 82.067223,229.863068 78.098381,229.745651 
	C78.061821,221.494461 78.220573,213.235809 77.905609,204.995255 
	C77.750092,200.926361 78.998550,199.091583 83.576889,199.569763 
z"/>
<path fill="#F9CC13" opacity="1.000000" stroke="none" 
	d="
M90.934868,321.071899 
	C86.950546,321.071899 82.966225,321.071899 77.998581,321.071899 
	C77.998581,313.822357 77.854782,306.915131 78.062965,300.018555 
	C78.158295,296.860321 78.946068,293.722992 80.196365,290.452454 
	C84.961777,290.354431 88.950623,290.398926 92.939507,290.403015 
	C128.346359,290.439392 163.753204,290.468597 199.258469,290.624054 
	C199.523285,290.892517 199.716492,290.969971 199.840942,291.438416 
	C199.800049,295.948364 199.854691,300.000427 199.785706,304.503448 
	C199.662094,310.199829 199.662094,315.445282 199.662094,321.071899 
	C162.795639,321.071899 126.865257,321.071899 90.934868,321.071899 
z"/>
<path fill="#0B1532" opacity="1.000000" stroke="none" 
	d="
M199.160049,290.499908 
	C163.753204,290.468597 128.346359,290.439392 92.939507,290.403015 
	C88.950623,290.398926 84.961777,290.354431 80.520866,290.223694 
	C77.240517,274.768127 75.220062,259.337097 76.054939,243.682556 
	C76.291718,239.242859 77.068283,234.831955 77.847839,230.076752 
	C82.067223,229.863068 86.036064,229.980484 90.508133,230.598907 
	C91.059837,233.752365 91.238274,236.410416 91.124130,239.055832 
	C90.978737,242.425491 92.364937,243.938538 95.792305,243.841049 
	C99.935425,243.723221 104.085007,243.832672 108.331413,244.248230 
	C108.449303,248.751266 108.558601,252.852158 108.453819,256.947540 
	C108.384102,259.672913 109.441460,260.782318 112.210220,260.709869 
	C115.474068,260.624451 118.746567,260.869446 122.000557,261.437317 
	C121.979691,263.400848 121.968163,264.898224 121.968391,266.395630 
	C121.969528,274.000732 121.970589,274.004547 129.549301,274.008087 
	C152.676163,274.018860 175.803024,274.026398 199.014130,274.494537 
	C199.118912,280.135925 199.139481,285.317902 199.160049,290.499908 
z"/>
<path fill="#0C1632" opacity="1.000000" stroke="none" 
	d="
M411.940430,304.033905 
	C411.575928,299.678314 411.211426,295.322754 410.796356,290.363007 
	C405.689636,290.363007 400.810059,290.363007 395.420563,289.799011 
	C394.890594,265.911713 394.941284,242.587936 394.782867,219.265594 
	C394.755463,215.230316 395.941711,213.610184 400.163544,213.716919 
	C407.479706,213.901901 414.808350,213.590561 422.149963,213.545502 
	C422.168152,213.603622 422.189453,213.723557 422.189453,213.723557 
	C423.453583,225.220184 425.332245,236.689651 425.842072,248.219635 
	C426.668182,266.901550 423.452942,285.171326 417.809814,303.532043 
	C417.523163,304.002106 417.102570,304.178314 416.675018,304.109009 
	C414.811798,304.037750 413.376099,304.035828 411.940430,304.033905 
z"/>
<path fill="#534D29" opacity="1.000000" stroke="none" 
	d="
M90.978584,321.446503 
	C126.865257,321.071899 162.795639,321.071899 199.662094,321.071899 
	C199.662094,315.445282 199.662094,310.199829 200.254089,304.472168 
	C204.889862,303.985870 208.933624,303.981781 212.995056,303.995972 
	C213.012726,304.014282 213.047424,304.051483 213.047424,304.051483 
	C213.012939,312.212097 212.742966,320.381195 213.037674,328.529907 
	C213.198807,332.984985 211.667084,334.192230 207.328735,334.175507 
	C171.187119,334.036194 135.044708,334.109985 98.426498,334.140198 
	C97.550507,334.125885 97.150551,334.090820 96.395538,333.667725 
	C94.425423,330.211975 92.810356,327.144226 91.195282,324.076508 
	C91.137619,323.324707 91.079964,322.572906 90.978584,321.446503 
z"/>
<path fill="#534D29" opacity="1.000000" stroke="none" 
	d="
M333.902832,321.633087 
	C359.301392,321.110413 384.679657,321.040680 410.464264,321.319733 
	C409.197510,325.780945 407.524414,329.893311 405.851318,334.005737 
	C405.442383,334.033051 405.033447,334.060364 404.321106,334.128510 
	C383.377655,334.143188 362.737549,334.114868 342.097473,334.092041 
	C333.885040,334.082977 333.884613,334.088531 333.877380,326.080933 
	C333.876160,324.749298 333.880676,323.417664 333.902832,321.633087 
z"/>
<path fill="#746941" opacity="1.000000" stroke="none" 
	d="
M406.334686,334.022156 
	C407.524414,329.893311 409.197510,325.780945 410.932465,321.309753 
	C411.155945,320.179138 411.317505,319.407318 411.879333,318.105835 
	C413.887207,313.110260 415.494904,308.644287 417.102600,304.178314 
	C417.102570,304.178314 417.523163,304.002106 417.727173,303.898987 
	C425.003906,304.202942 425.008606,304.202942 425.018585,311.118622 
	C425.026245,316.435028 425.026520,321.751434 425.018677,327.067841 
	C425.008362,334.038483 425.003510,334.044525 418.281464,334.055847 
	C414.460358,334.062256 410.639191,334.045105 406.334686,334.022156 
z"/>
<path fill="#857535" opacity="1.000000" stroke="none" 
	d="
M411.695435,184.177094 
	C411.552490,183.342865 411.409576,182.508636 411.416504,181.271439 
	C414.292419,181.581940 417.010803,182.838684 419.746460,182.877548 
	C423.553162,182.931625 425.130463,184.065109 424.994873,188.048630 
	C424.757965,195.007828 425.048126,201.984619 424.832916,208.945236 
	C424.785095,210.491730 423.556030,212.001724 422.530151,213.626038 
	C422.189453,213.723557 422.168152,213.603622 422.051849,213.211746 
	C420.004883,206.146973 418.255066,199.413879 416.062958,192.827988 
	C415.053650,189.795731 413.178162,187.051788 411.695435,184.177094 
z"/>
<path fill="#696144" opacity="1.000000" stroke="none" 
	d="
M91.154678,324.519958 
	C92.810356,327.144226 94.425423,330.211975 96.093643,333.653656 
	C88.075356,334.556274 91.997139,328.425934 91.154678,324.519958 
z"/>
<path fill="#FACC13" opacity="1.000000" stroke="none" 
	d="
M122.015312,260.971222 
	C118.746567,260.869446 115.474068,260.624451 112.210220,260.709869 
	C109.441460,260.782318 108.384102,259.672913 108.453819,256.947540 
	C108.558601,252.852158 108.449303,248.751266 108.432838,243.802719 
	C108.330467,238.623215 108.226288,234.293701 108.122108,229.964203 
	C108.309280,229.955322 108.496445,229.946426 109.408905,229.908905 
	C114.126541,229.828491 118.118889,229.776657 122.111237,229.724823 
	C145.973160,229.795319 169.835098,229.866180 193.697021,229.935654 
	C195.478790,229.940842 197.260574,229.936310 199.581635,229.936310 
	C199.581635,234.322281 199.581635,238.262131 199.585312,243.110657 
	C199.683594,249.357437 199.778198,254.695496 199.716248,260.082947 
	C199.356613,260.225800 199.186172,260.360565 198.578201,260.577637 
	C192.470169,260.643555 186.832291,260.667236 181.194427,260.693542 
	C161.468063,260.785614 141.741684,260.878571 122.015312,260.971222 
z"/>
<path fill="#544E29" opacity="1.000000" stroke="none" 
	d="
M122.112976,229.275040 
	C118.118889,229.776657 114.126541,229.828491 109.689041,229.885971 
	C109.107483,224.567612 108.971085,219.243576 109.384018,213.469086 
	C122.292450,213.067245 122.292412,213.067245 121.873238,200.892746 
	C121.867615,200.729507 121.866768,200.566086 121.863693,200.402756 
	C146.284256,200.332199 170.704788,200.253952 195.125381,200.194778 
	C205.260864,200.170227 215.397232,200.114349 225.531525,200.226257 
	C228.740753,200.261688 230.024368,199.087997 229.880386,195.835571 
	C229.704285,191.857239 229.881760,187.863220 230.003922,183.413696 
	C243.063614,182.688065 243.063660,182.688065 243.063599,195.705536 
	C243.063583,199.536560 243.077103,203.367645 243.059891,207.198593 
	C243.030899,213.644974 242.894150,213.793182 236.217667,213.801331 
	C222.392700,213.818176 208.567688,213.806671 194.742706,213.806732 
	C172.755981,213.806824 150.769257,213.801956 128.782532,213.809875 
	C122.066124,213.812286 122.055191,213.828323 122.043922,220.331787 
	C122.039017,223.162888 122.089432,225.994095 122.112976,229.275040 
z"/>
<path fill="#F6C914" opacity="1.000000" stroke="none" 
	d="
M272.945343,321.117981 
	C268.823853,321.117981 264.702393,321.117981 259.807678,321.117981 
	C259.807678,311.283020 259.757904,301.921906 259.906219,292.563934 
	C259.917542,291.848572 261.320190,290.555084 262.091614,290.543304 
	C271.332245,290.401703 280.575775,290.451843 290.510376,290.451843 
	C290.510376,295.125366 290.510376,299.228516 290.535278,304.158325 
	C290.560211,310.206177 290.560211,315.427338 290.560211,321.117981 
	C284.130066,321.117981 278.537720,321.117981 272.945343,321.117981 
z"/>
<path fill="#ECC115" opacity="1.000000" stroke="none" 
	d="
M199.048370,260.536591 
	C199.186172,260.360565 199.356613,260.225800 200.190094,260.050781 
	C204.911697,259.912140 209.002914,259.854980 213.094116,259.797852 
	C216.894440,259.855377 220.707062,260.127716 224.491699,259.911133 
	C228.426636,259.685974 230.459381,260.787079 229.911331,265.143433 
	C229.624725,267.421600 229.876770,269.767548 229.870682,273.002869 
	C229.930618,278.281433 230.005417,282.639954 230.002930,287.400360 
	C230.014206,290.881409 227.924026,291.075287 225.633514,291.099762 
	C221.382309,291.145172 217.131668,291.245148 212.432495,291.232239 
	C207.968277,291.088257 203.952377,291.034393 199.936478,290.980560 
	C199.716492,290.969971 199.523285,290.892517 199.258469,290.624054 
	C199.139481,285.317902 199.118912,280.135925 199.087616,274.030792 
	C199.067383,268.917297 199.057877,264.726959 199.048370,260.536591 
z"/>
<path fill="#544E29" opacity="1.000000" stroke="none" 
	d="
M272.975922,321.573975 
	C278.537720,321.117981 284.130066,321.117981 290.560211,321.117981 
	C290.560211,315.427338 290.560211,310.206177 290.699188,304.541840 
	C307.149261,303.786133 303.470520,302.427246 303.887268,316.592529 
	C304.009735,320.755554 303.675659,324.941498 303.969940,329.087219 
	C304.260712,333.184052 302.493195,334.264648 298.710938,334.145508 
	C291.884460,333.930511 285.040924,333.921112 278.215210,334.147888 
	C274.361542,334.275909 272.614960,333.046753 273.011963,329.024994 
	C273.239899,326.716003 273.023071,324.363098 272.975922,321.573975 
z"/>
<path fill="#534D29" opacity="1.000000" stroke="none" 
	d="
M212.880798,291.322388 
	C217.131668,291.245148 221.382309,291.145172 225.633514,291.099762 
	C227.924026,291.075287 230.014206,290.881409 230.347137,287.230865 
	C231.185242,282.412659 231.601852,278.165771 232.018448,273.918915 
	C245.148880,273.741516 242.849579,272.930573 243.053528,284.534088 
	C243.141174,289.520477 242.933411,294.514313 243.106018,299.496216 
	C243.225937,302.957733 241.831528,304.223694 238.412064,304.162720 
	C230.267578,304.017365 222.118805,304.111359 213.509598,304.080078 
	C213.047424,304.051483 213.012726,304.014282 212.976715,303.538910 
	C212.920731,299.149811 212.900772,295.236115 212.880798,291.322388 
z"/>
<path fill="#514B29" opacity="1.000000" stroke="none" 
	d="
M332.945312,200.754288 
	C337.638885,200.275711 342.396759,200.318909 347.147888,200.159836 
	C349.836426,200.069824 351.069122,200.954712 350.901276,203.818542 
	C350.719147,206.925629 350.872772,210.052399 350.806641,213.636505 
	C346.798126,214.009933 342.848969,213.669876 338.931488,213.890854 
	C334.542358,214.138443 333.003174,212.181213 333.193604,208.072754 
	C333.299530,205.786758 333.079742,203.485687 332.945312,200.754288 
z"/>
<path fill="#554F29" opacity="1.000000" stroke="none" 
	d="
M213.067459,259.343414 
	C209.002914,259.854980 204.911697,259.912140 200.346649,260.001434 
	C199.778198,254.695496 199.683594,249.357437 199.696777,243.570068 
	C212.825500,243.129593 212.823730,243.129608 212.938843,255.918106 
	C212.947754,256.908630 213.005661,257.898712 213.067459,259.343414 
z"/>
<path fill="#554E29" opacity="1.000000" stroke="none" 
	d="
M231.788910,273.760620 
	C231.601852,278.165771 231.185242,282.412659 230.424423,286.829010 
	C230.005417,282.639954 229.930618,278.281433 229.925385,273.462799 
	C230.516434,273.202576 231.037903,273.402435 231.788910,273.760620 
z"/>
<path fill="#514B29" opacity="1.000000" stroke="none" 
	d="
M350.667969,289.128326 
	C350.763245,289.303436 350.706757,289.659729 350.362427,290.075653 
	C350.148285,289.820679 350.295502,289.545441 350.667969,289.128326 
z"/>
<path fill="#564F29" opacity="1.000000" stroke="none" 
	d="
M411.634155,184.568024 
	C413.178162,187.051788 415.053650,189.795731 416.062958,192.827988 
	C418.255066,199.413879 420.004883,206.146973 422.033661,213.153625 
	C414.808350,213.590561 407.479706,213.901901 400.163544,213.716919 
	C395.941711,213.610184 394.755463,215.230316 394.782867,219.265594 
	C394.941284,242.587936 394.890594,265.911713 394.961792,289.714020 
	C390.571014,290.193054 386.129089,290.193054 381.483337,290.193054 
	C381.483337,260.193604 381.483337,230.497482 381.483337,200.171890 
	C389.709930,200.171890 397.662750,199.927429 405.590607,200.266449 
	C410.117950,200.460083 412.061066,199.127472 411.627106,194.443497 
	C411.336517,191.307236 411.572479,188.122177 411.634155,184.568024 
z"/>
<path fill="#56502A" opacity="1.000000" stroke="none" 
	d="
M416.675049,304.109009 
	C415.494904,308.644287 413.887207,313.110260 412.028229,317.740997 
	C411.746094,313.575836 411.715271,309.245911 411.812439,304.474915 
	C413.376099,304.035828 414.811798,304.037750 416.675049,304.109009 
z"/>
<path fill="#554E29" opacity="1.000000" stroke="none" 
	d="
M107.646446,229.993774 
	C108.226288,234.293701 108.330467,238.623215 108.333221,243.398224 
	C104.085007,243.832672 99.935425,243.723221 95.792305,243.841049 
	C92.364937,243.938538 90.978737,242.425491 91.124130,239.055832 
	C91.238274,236.410416 91.059837,233.752365 90.961380,230.652100 
	C96.331192,230.143967 101.750992,230.083649 107.646446,229.993774 
z"/>
<path fill="#0C1632" opacity="1.000000" stroke="none" 
	d="
M121.414780,200.321762 
	C121.866768,200.566086 121.867615,200.729507 121.873238,200.892746 
	C122.292412,213.067245 122.292450,213.067245 109.469276,213.007935 
	C109.005203,208.943802 109.005203,204.890350 109.005203,200.240768 
	C113.204979,200.240768 117.085419,200.240768 121.414780,200.321762 
z"/>
<path fill="#0E1831" opacity="1.000000" stroke="none" 
	d="
M212.432495,291.232239 
	C212.900772,295.236115 212.920731,299.149811 212.959045,303.520630 
	C208.933624,303.981781 204.889862,303.985870 200.377716,304.021240 
	C199.854691,300.000427 199.800049,295.948364 199.840942,291.438416 
	C203.952377,291.034393 207.968277,291.088257 212.432495,291.232239 
z"/>
<path fill="#534D29" opacity="1.000000" stroke="none" 
	d="
M198.578217,260.577637 
	C199.057877,264.726959 199.067383,268.917297 199.003387,273.571411 
	C175.803024,274.026398 152.676163,274.018860 129.549301,274.008087 
	C121.970589,274.004547 121.969528,274.000732 121.968391,266.395630 
	C121.968163,264.898224 121.979691,263.400848 122.000557,261.437317 
	C141.741684,260.878571 161.468063,260.785614 181.194427,260.693542 
	C186.832291,260.667236 192.470169,260.643555 198.578217,260.577637 
z"/>
</svg>